<mxfile host="app.diagrams.net" modified="2022-06-12T09:27:58.173Z" agent="5.0 (Macintosh)" etag="gX8X964aO_5kZsG_bLIt" version="17.4.6" type="github">
  <diagram id="rskVMAxrubaKaFesWpBx" name="Page-1">
    <mxGraphModel dx="1047" dy="1117" grid="1" gridSize="10" guides="1" tooltips="1" connect="1" arrows="1" fold="1" page="1" pageScale="1" pageWidth="850" pageHeight="1100" math="0" shadow="0">
      <root>
        <mxCell id="0" />
        <mxCell id="1" parent="0" />
        <mxCell id="74WRLwF5iwRHL6nYh5ae-1" value="" style="endArrow=classic;startArrow=classic;html=1;rounded=0;strokeWidth=3;" edge="1" parent="1">
          <mxGeometry width="50" height="50" relative="1" as="geometry">
            <mxPoint x="40" y="240" as="sourcePoint" />
            <mxPoint x="40" y="10" as="targetPoint" />
          </mxGeometry>
        </mxCell>
        <mxCell id="74WRLwF5iwRHL6nYh5ae-2" value="Levels" style="edgeLabel;html=1;align=center;verticalAlign=middle;resizable=0;points=[];" vertex="1" connectable="0" parent="74WRLwF5iwRHL6nYh5ae-1">
          <mxGeometry x="-0.0333" y="3" relative="1" as="geometry">
            <mxPoint x="3" as="offset" />
          </mxGeometry>
        </mxCell>
        <mxCell id="74WRLwF5iwRHL6nYh5ae-3" value="interviewers" style="verticalLabelPosition=bottom;sketch=0;html=1;fillColor=#282828;strokeColor=none;verticalAlign=top;pointerEvents=1;align=center;shape=mxgraph.cisco_safe.people_places_things_icons.icon9;" vertex="1" parent="1">
          <mxGeometry x="400" y="92.5" width="50" height="45" as="geometry" />
        </mxCell>
        <mxCell id="74WRLwF5iwRHL6nYh5ae-4" value="interviewee" style="verticalLabelPosition=bottom;sketch=0;html=1;fillColor=#282828;strokeColor=none;verticalAlign=top;pointerEvents=1;align=center;shape=mxgraph.cisco_safe.people_places_things_icons.icon8;" vertex="1" parent="1">
          <mxGeometry x="80" y="90" width="19.5" height="50" as="geometry" />
        </mxCell>
        <mxCell id="74WRLwF5iwRHL6nYh5ae-5" value="" style="fontColor=#0066CC;verticalAlign=top;verticalLabelPosition=bottom;labelPosition=center;align=center;html=1;outlineConnect=0;fillColor=#CCCCCC;strokeColor=#6881B3;gradientColor=none;gradientDirection=north;strokeWidth=2;shape=mxgraph.networks.load_balancer;" vertex="1" parent="1">
          <mxGeometry x="183.49" y="20" width="100" height="30" as="geometry" />
        </mxCell>
        <mxCell id="74WRLwF5iwRHL6nYh5ae-20" value="" style="edgeStyle=orthogonalEdgeStyle;rounded=0;orthogonalLoop=1;jettySize=auto;html=1;startArrow=none;startFill=0;strokeWidth=1;" edge="1" parent="1" source="74WRLwF5iwRHL6nYh5ae-6" target="74WRLwF5iwRHL6nYh5ae-10">
          <mxGeometry relative="1" as="geometry" />
        </mxCell>
        <mxCell id="74WRLwF5iwRHL6nYh5ae-6" value="" style="points=[];aspect=fixed;html=1;align=center;shadow=0;dashed=0;image;image=img/lib/allied_telesis/storage/Datacenter_Server_Half_Rack_ToR.svg;" vertex="1" parent="1">
          <mxGeometry x="150" y="80" width="42.33" height="55" as="geometry" />
        </mxCell>
        <mxCell id="74WRLwF5iwRHL6nYh5ae-22" value="" style="edgeStyle=orthogonalEdgeStyle;rounded=0;orthogonalLoop=1;jettySize=auto;html=1;startArrow=none;startFill=0;strokeWidth=1;" edge="1" parent="1" source="74WRLwF5iwRHL6nYh5ae-8" target="74WRLwF5iwRHL6nYh5ae-14">
          <mxGeometry relative="1" as="geometry" />
        </mxCell>
        <mxCell id="74WRLwF5iwRHL6nYh5ae-8" value="" style="points=[];aspect=fixed;html=1;align=center;shadow=0;dashed=0;image;image=img/lib/allied_telesis/storage/Datacenter_Server_Half_Rack_ToR.svg;" vertex="1" parent="1">
          <mxGeometry x="270" y="80" width="42.33" height="55" as="geometry" />
        </mxCell>
        <mxCell id="74WRLwF5iwRHL6nYh5ae-9" value="" style="points=[];aspect=fixed;html=1;align=center;shadow=0;dashed=0;image;image=img/lib/allied_telesis/storage/Datacenter_Server_Half_Rack_ToR.svg;" vertex="1" parent="1">
          <mxGeometry x="212.32999999999998" y="80" width="42.33" height="55" as="geometry" />
        </mxCell>
        <mxCell id="74WRLwF5iwRHL6nYh5ae-12" value="" style="edgeStyle=orthogonalEdgeStyle;rounded=0;orthogonalLoop=1;jettySize=auto;html=1;strokeWidth=1;startArrow=classic;startFill=1;" edge="1" parent="1" source="74WRLwF5iwRHL6nYh5ae-10" target="74WRLwF5iwRHL6nYh5ae-11">
          <mxGeometry relative="1" as="geometry" />
        </mxCell>
        <mxCell id="74WRLwF5iwRHL6nYh5ae-10" value="" style="shape=datastore;whiteSpace=wrap;html=1;fillColor=#666666;strokeColor=#23445d;gradientColor=#ffffff;" vertex="1" parent="1">
          <mxGeometry x="172.32999999999998" y="190" width="40" height="40" as="geometry" />
        </mxCell>
        <mxCell id="74WRLwF5iwRHL6nYh5ae-11" value="" style="shape=datastore;whiteSpace=wrap;html=1;fillColor=#666666;strokeColor=#23445d;gradientColor=#ffffff;" vertex="1" parent="1">
          <mxGeometry x="254.65999999999997" y="190" width="40" height="40" as="geometry" />
        </mxCell>
        <mxCell id="74WRLwF5iwRHL6nYh5ae-13" value="" style="outlineConnect=0;dashed=0;verticalLabelPosition=bottom;verticalAlign=top;align=center;html=1;shape=mxgraph.aws3.cache_node;fillColor=#999999;gradientColor=none;" vertex="1" parent="1">
          <mxGeometry x="207.32999999999998" y="140" width="45.83" height="35" as="geometry" />
        </mxCell>
        <mxCell id="74WRLwF5iwRHL6nYh5ae-14" value="" style="shape=image;html=1;verticalAlign=top;verticalLabelPosition=bottom;labelBackgroundColor=#ffffff;imageAspect=0;aspect=fixed;image=https://cdn3.iconfinder.com/data/icons/essential-rounded/66/Rounded-12-128.png;fillColor=#999999;gradientColor=#ffffff;" vertex="1" parent="1">
          <mxGeometry x="320" y="160" width="50" height="50" as="geometry" />
        </mxCell>
        <mxCell id="74WRLwF5iwRHL6nYh5ae-15" value="scorecard" style="sketch=0;pointerEvents=1;shadow=0;dashed=0;html=1;strokeColor=none;fillColor=#4D4D4D;labelPosition=center;verticalLabelPosition=bottom;verticalAlign=top;align=center;outlineConnect=0;shape=mxgraph.veeam2.task_list;" vertex="1" parent="1">
          <mxGeometry x="480" y="75" width="60" height="80" as="geometry" />
        </mxCell>
        <mxCell id="74WRLwF5iwRHL6nYh5ae-16" value="" style="rounded=1;whiteSpace=wrap;html=1;fillColor=none;gradientColor=#ffffff;dashed=1;" vertex="1" parent="1">
          <mxGeometry x="130" y="10" width="250" height="235" as="geometry" />
        </mxCell>
        <mxCell id="74WRLwF5iwRHL6nYh5ae-17" value="" style="endArrow=classic;html=1;rounded=0;strokeWidth=1;exitX=0.5;exitY=1;exitDx=0;exitDy=0;exitPerimeter=0;entryX=0.85;entryY=0.036;entryDx=0;entryDy=0;entryPerimeter=0;" edge="1" parent="1" source="74WRLwF5iwRHL6nYh5ae-5" target="74WRLwF5iwRHL6nYh5ae-6">
          <mxGeometry width="50" height="50" relative="1" as="geometry">
            <mxPoint x="550" y="300" as="sourcePoint" />
            <mxPoint x="600" y="250" as="targetPoint" />
          </mxGeometry>
        </mxCell>
        <mxCell id="74WRLwF5iwRHL6nYh5ae-18" value="" style="endArrow=classic;html=1;rounded=0;strokeWidth=1;exitX=0.5;exitY=1;exitDx=0;exitDy=0;exitPerimeter=0;" edge="1" parent="1" source="74WRLwF5iwRHL6nYh5ae-5" target="74WRLwF5iwRHL6nYh5ae-9">
          <mxGeometry width="50" height="50" relative="1" as="geometry">
            <mxPoint x="243.49" y="60" as="sourcePoint" />
            <mxPoint x="195.9804999999999" y="91.98000000000002" as="targetPoint" />
          </mxGeometry>
        </mxCell>
        <mxCell id="74WRLwF5iwRHL6nYh5ae-19" value="" style="endArrow=classic;html=1;rounded=0;strokeWidth=1;exitX=0.5;exitY=1;exitDx=0;exitDy=0;exitPerimeter=0;" edge="1" parent="1" source="74WRLwF5iwRHL6nYh5ae-5" target="74WRLwF5iwRHL6nYh5ae-8">
          <mxGeometry width="50" height="50" relative="1" as="geometry">
            <mxPoint x="243.49" y="60" as="sourcePoint" />
            <mxPoint x="243.49260869565205" y="90" as="targetPoint" />
          </mxGeometry>
        </mxCell>
        <mxCell id="74WRLwF5iwRHL6nYh5ae-24" value="&lt;font style=&quot;font-size: 10px&quot;&gt;Queue&lt;/font&gt;" style="sketch=0;aspect=fixed;pointerEvents=1;shadow=0;dashed=0;html=1;strokeColor=none;labelPosition=center;verticalLabelPosition=bottom;verticalAlign=top;align=center;fillColor=#1A1A1A;shape=mxgraph.azure.queue_generic" vertex="1" parent="1">
          <mxGeometry x="262.33000000000004" y="145" width="50" height="15" as="geometry" />
        </mxCell>
      </root>
    </mxGraphModel>
  </diagram>
</mxfile>
